<svg width="97" height="43" viewBox="0 0 97 43" fill="none" xmlns="http://www.w3.org/2000/svg">
<path d="M9.01884 5.50669L0 10.97V25.0186C0 36.639 0.130079 39.2406 0.650397 40.2812C1.38751 41.7121 2.51487 42.4059 4.68286 42.9262C6.02701 43.2297 6.89421 42.7961 15.2193 37.7664L24.2815 32.303V18.2978C24.2815 10.5798 24.1948 4.29262 24.0647 4.29262C23.978 4.29262 23.4143 4.50942 22.8506 4.76958C21.2897 5.46333 18.3412 3.3387 18.1244 1.38751L17.9943 0L9.01884 5.50669ZM17.7342 1.56095C17.6908 2.03791 1.30079 11.7939 1.04063 11.5337C0.823836 11.3169 16.8236 1.38751 17.474 1.30079C17.6474 1.25743 17.7775 1.38751 17.7342 1.56095ZM19.2951 4.37934C20.3357 5.11646 21.2029 5.81021 21.1162 5.85357C21.0729 5.89693 17.7342 7.93484 13.6583 10.4063C9.36571 12.9646 5.85357 14.829 5.28989 14.7857C4.2059 14.699 1.90783 13.615 1.56095 13.0079C1.34415 12.7044 16.5634 2.99183 17.2138 2.99183C17.2572 2.99183 18.2111 3.59886 19.2951 4.37934ZM23.4143 18.7314V31.8261L15.9564 36.3789C11.8372 38.8504 8.06492 41.1051 7.58796 41.4086C6.72077 41.9723 6.72077 41.8855 6.76413 28.7475L6.80749 15.5228L14.7857 10.6231C19.165 7.89148 22.894 5.68013 23.1108 5.63677C23.2842 5.59341 23.4143 11.4903 23.4143 18.7314ZM4.50942 15.4361C5.81021 15.6529 6.07037 15.8697 6.07037 16.7369C6.07037 17.5607 5.89693 17.7775 5.37661 17.5607C4.98638 17.4306 4.4227 17.3006 4.11918 17.3006C3.1219 17.3006 0.867196 15.0892 0.867196 14.1353C0.867196 13.2681 0.867196 13.2681 1.90783 14.222C2.47151 14.7423 3.64222 15.2626 4.50942 15.4361ZM4.46606 18.1244L5.85357 18.4279L5.98365 29.1378C6.11373 40.7582 6.20045 40.368 3.72894 39.414C3.1219 39.1972 2.25471 38.6336 1.73439 38.1132C0.910555 37.2894 0.867196 36.7257 0.867196 26.8397V16.4334L1.95119 17.1271C2.55823 17.5174 3.68558 17.9943 4.46606 18.1244ZM4.59614 40.5414C5.68013 40.7582 6.07037 41.0184 6.07037 41.6688C6.07037 42.2758 5.85357 42.4492 5.37661 42.2758C4.98638 42.1457 4.4227 42.0156 4.11918 42.0156C3.25198 42.0156 0.867196 39.891 0.867196 39.1105C0.867196 38.6336 1.12735 38.6769 1.99455 39.3707C2.60159 39.8476 3.7723 40.368 4.59614 40.5414Z" fill="black"/>
<path d="M14.7423 14.0052L8.88876 17.5607L8.75868 27.4034C8.71532 32.8234 8.80204 37.2461 8.97548 37.2027C9.19227 37.2027 12.054 35.5117 15.3927 33.4304L21.4631 29.6147V20.1623C21.4631 14.1786 21.2897 10.6231 21.0295 10.5364C20.8127 10.4931 17.9509 12.054 14.7423 14.0052ZM20.726 20.4225L20.5959 29.1811L15.1759 32.5198L9.75595 35.8585L9.62587 27.1432C9.58251 22.3736 9.66923 18.2978 9.84267 18.1244C10.4063 17.5607 20.1189 11.6638 20.5092 11.6638C20.6826 11.6638 20.7693 15.6095 20.726 20.4225Z" fill="black"/>
<path d="M1.38751 27.5768L1.51759 36.1187L2.94846 36.9425L4.33598 37.7664V29.1378V20.5092L2.81839 19.7721L1.30079 19.0349L1.38751 27.5768ZM3.90238 28.8776C3.90238 32.9968 3.81566 36.3789 3.72894 36.3789C3.64222 36.3789 3.25198 36.2488 2.86174 36.1187C2.25471 35.9019 2.16799 34.7745 2.16799 28.0971C2.16799 20.4225 2.16799 20.3357 3.03518 20.8561C3.85902 21.3764 3.90238 21.8967 3.90238 28.8776Z" fill="black"/>
<path d="M88.8876 21.6365V29.8749H89.9716H91.0555V21.6365V13.3982H89.9716H88.8876V21.6365Z" fill="black"/>
<path d="M94.5243 21.6365V29.8749H95.6083H96.6923V21.6365V13.3982H95.6083H94.5243V21.6365Z" fill="black"/>
<path d="M29.4846 21.8533V29.8749H30.5686H31.6526V21.8533V13.8318H30.5686H29.4846V21.8533Z" fill="black"/>
<path d="M48.1294 21.8533V29.8749H49.4735H50.861L50.6442 27.7069C50.4708 25.7991 50.8177 24.6717 51.5981 24.6717C51.7716 24.6717 52.7255 25.8424 53.7661 27.2733C55.4138 29.5714 55.804 29.8749 57.1048 29.8749H58.5791L55.9341 26.6229L53.2892 23.3709L54.6767 22.1568C55.4572 21.5064 56.6279 20.5525 57.2349 20.0322L58.3189 19.0783L56.5845 19.0349C55.0669 19.0349 54.5466 19.2951 52.8989 20.9861C51.8583 22.0701 50.861 22.9373 50.6876 22.9373C50.5141 22.9373 50.5141 20.8994 50.6442 18.3845L50.861 13.8318H49.4735H48.1294V21.8533Z" fill="black"/>
<path d="M35.555 19.1217C35.555 19.2084 35.5117 21.6365 35.4249 24.585L35.3382 29.8749H36.5523H37.723V26.0159C37.723 22.4604 37.8097 22.0701 38.6769 21.4631C39.9344 20.5959 41.3652 20.5959 42.2324 21.4631C42.7527 21.9834 42.9262 23.0674 42.9262 26.0159C42.9262 29.8315 42.9262 29.8749 44.0102 29.8749C45.0942 29.8749 45.0942 29.8315 45.0942 25.9725C45.0942 23.8479 44.8774 21.6365 44.6172 21.0728C43.6633 18.9482 40.4113 18.3845 38.3734 19.9889L37.2027 20.8994L37.4629 19.9889C37.723 19.165 37.5929 19.0349 36.6824 19.0349C36.0753 19.0349 35.555 19.0783 35.555 19.1217Z" fill="black"/>
<path d="M59.0127 19.3385C59.0994 19.5553 60.0533 22.0268 61.0939 24.8018C63.4787 31.1323 63.9557 31.3058 65.6467 26.4061C66.3405 24.4983 66.9041 22.9373 66.9909 22.9373C67.0776 22.9373 67.6846 24.4983 68.335 26.4061C70.0694 31.219 70.5464 31.089 72.7577 25.192C73.7116 22.6338 74.6655 20.2057 74.839 19.7721C75.0991 19.0783 74.9257 18.9916 73.9284 19.1217C72.8444 19.2517 72.6276 19.5553 71.6304 22.8072C71.0233 24.8018 70.4163 26.4061 70.2862 26.4061C70.1561 26.4061 69.5491 24.8018 68.9421 22.8072C68.0315 19.9455 67.6846 19.2517 66.9909 19.2517C66.2971 19.2517 65.9502 19.9455 65.0397 22.8072C64.4326 24.8018 63.869 26.4061 63.7389 26.4061C63.6088 26.4061 63.0018 24.8018 62.4381 22.8072C61.4408 19.5119 61.2674 19.2517 60.0967 19.1217C59.4463 19.0349 58.9259 19.1217 59.0127 19.3385Z" fill="black"/>
<path d="M78.4378 19.642C75.0991 21.5498 75.1425 27.4901 78.4812 29.2245C80.3023 30.135 83.3375 30.0483 84.5949 29.0511C85.5922 28.2706 85.5922 28.1405 84.8985 27.4467C84.2481 26.753 84.118 26.753 83.4676 27.4467C82.4269 28.4874 80.1289 28.3139 79.0015 27.1432C77.3105 25.3221 77.7007 25.1053 82.1668 25.2354C84.4649 25.3221 86.416 25.2787 86.5028 25.1053C86.893 24.4549 85.809 21.4197 84.8551 20.4225C83.5109 19.0783 80.1722 18.6881 78.4378 19.642ZM83.5543 21.6799C83.8578 21.94 84.118 22.5037 84.118 22.894C84.118 23.4576 83.641 23.5877 81.2129 23.501C78.0476 23.4143 77.6574 23.024 79.4785 21.5064C80.4324 20.6393 82.3836 20.7693 83.5543 21.6799Z" fill="black"/>
</svg>
